HIERARCHY
ROOT Hips
{
	OFFSET 0.000000 1.471914 24.280096
	CHANNELS 6 Xposition Yposition Zposition Xrotation Yrotation Zrotation
	JOINT Spine
	{
		OFFSET 0.000000 0.900110 1.860670
		CHANNELS 6 Xposition Yposition Zposition Xrotation Yrotation Zrotation
		JOINT Spine1
		{
			OFFSET 0.000000 0.400320 2.270309
			CHANNELS 6 Xposition Yposition Zposition Xrotation Yrotation Zrotation
			JOINT Spine2
			{
				OFFSET 0.000000 0.200920 2.296560
				CHANNELS 6 Xposition Yposition Zposition Xrotation Yrotation Zrotation
				JOINT Spine3
				{
					OFFSET 0.000000 0.000000 2.305330
					CHANNELS 6 Xposition Yposition Zposition Xrotation Yrotation Zrotation
					JOINT Neck
					{
						OFFSET 0.000000 -0.864490 6.051487
						CHANNELS 6 Xposition Yposition Zposition Xrotation Yrotation Zrotation
						JOINT Head
						{
							OFFSET 0.000000 -0.550429 3.121674
							CHANNELS 6 Xposition Yposition Zposition Xrotation Yrotation Zrotation
							End Site
							{
								OFFSET 0.000000 0.000000 3.731750
							}
						}
					}
					JOINT RightShoulder
					{
						OFFSET -0.788280 -1.313800 4.256718
						CHANNELS 6 Xposition Yposition Zposition Xrotation Yrotation Zrotation
						JOINT RightArm
						{
							OFFSET -3.915130 0.000000 0.000000
							CHANNELS 6 Xposition Yposition Zposition Xrotation Yrotation Zrotation
							JOINT RightForeArm
							{
								OFFSET -6.914910 0.000000 0.000000
								CHANNELS 6 Xposition Yposition Zposition Xrotation Yrotation Zrotation
								JOINT RightHand
								{
									OFFSET -6.096219 0.000000 0.000000
									CHANNELS 6 Xposition Yposition Zposition Xrotation Yrotation Zrotation
									JOINT RightHandEnd
									{
										OFFSET -1.749950 0.000000 0.000000
										CHANNELS 6 Xposition Yposition Zposition Xrotation Yrotation Zrotation
										End Site
										{
											OFFSET -1.749950 0.000000 0.000000
										}
									}
									JOINT RightHandThumb1
									{
										OFFSET -0.699980 -1.166630 -0.466648
										CHANNELS 6 Xposition Yposition Zposition Xrotation Yrotation Zrotation
										End Site
										{
											OFFSET -1.690319 -0.452920 0.000000
										}
									}
								}
							}
						}
					}
					JOINT LeftShoulder
					{
						OFFSET 0.788280 -1.313800 4.256718
						CHANNELS 6 Xposition Yposition Zposition Xrotation Yrotation Zrotation
						JOINT LeftArm
						{
							OFFSET 3.915130 0.000000 0.000000
							CHANNELS 6 Xposition Yposition Zposition Xrotation Yrotation Zrotation
							JOINT LeftForeArm
							{
								OFFSET 6.914910 0.000000 0.000000
								CHANNELS 6 Xposition Yposition Zposition Xrotation Yrotation Zrotation
								JOINT LeftHand
								{
									OFFSET 6.096219 0.000000 0.000000
									CHANNELS 6 Xposition Yposition Zposition Xrotation Yrotation Zrotation
									JOINT LeftHandEnd
									{
										OFFSET 1.749950 0.000000 0.000000
										CHANNELS 6 Xposition Yposition Zposition Xrotation Yrotation Zrotation
										End Site
										{
											OFFSET 1.749950 0.000000 0.000000
										}
									}
									JOINT LeftHandThumb1
									{
										OFFSET 0.699980 -1.166630 -0.466648
										CHANNELS 6 Xposition Yposition Zposition Xrotation Yrotation Zrotation
										End Site
										{
											OFFSET 1.690319 -0.452920 0.000000
										}
									}
								}
							}
						}
					}
				}
			}
		}
	}
	JOINT RightUpLeg
	{
		OFFSET -2.338570 -0.252550 -0.551512
		CHANNELS 6 Xposition Yposition Zposition Xrotation Yrotation Zrotation
		JOINT RightLeg
		{
			OFFSET 0.000000 0.000000 -10.744959
			CHANNELS 6 Xposition Yposition Zposition Xrotation Yrotation Zrotation
			JOINT RightFoot
			{
				OFFSET 0.000000 -0.000001 -10.930849
				CHANNELS 6 Xposition Yposition Zposition Xrotation Yrotation Zrotation
				JOINT RightToeBase
				{
					OFFSET 0.000000 -4.087269 -1.487650
					CHANNELS 6 Xposition Yposition Zposition Xrotation Yrotation Zrotation
					End Site
					{
						OFFSET 0.000000 -1.891870 0.000000
					}
				}
			}
		}
	}
	JOINT LeftUpLeg
	{
		OFFSET 2.338570 -0.252550 -0.551512
		CHANNELS 6 Xposition Yposition Zposition Xrotation Yrotation Zrotation
		JOINT LeftLeg
		{
			OFFSET 0.000000 0.000000 -10.744959
			CHANNELS 6 Xposition Yposition Zposition Xrotation Yrotation Zrotation
			JOINT LeftFoot
			{
				OFFSET 0.000000 -0.000001 -10.930849
				CHANNELS 6 Xposition Yposition Zposition Xrotation Yrotation Zrotation
				JOINT LeftToeBase
				{
					OFFSET 0.000000 -4.087269 -1.487650
					CHANNELS 6 Xposition Yposition Zposition Xrotation Yrotation Zrotation
					End Site
					{
						OFFSET 0.000000 -1.891870 0.000000
					}
				}
			}
		}
	}
}
MOTION
Frames: 6
Frame Time: 0.041667
-0.000036 26.869757 39.787834 -2.491206 -3.046437 -10.800304 0.000000 0.900094 1.860638 13.394310 -3.495107 -0.498804 0.000002 0.400319 2.270310 -0.430003 -2.973793 0.051108 0.000004 0.200924 2.296553 0.914108 3.358499 10.607999 0.000002 0.000010 2.305336 -0.542938 -0.290067 -10.297569 0.000000 -0.864488 6.051453 -6.888816 2.354230 179.464149 -0.000007 -0.550436 3.121684 3.770705 0.771002 -17.870792 -0.788277 -1.313810 4.256717 -114.520826 43.184458 -64.078567 -3.915121 0.000008 -0.000018 -3.667942 -8.252614 2.894098 -6.914925 0.000002 -0.000013 4.119142 8.038063 -31.041031 -6.096231 0.000021 -0.000004 -0.000009 -0.000003 -0.000014 -1.749952 -0.000000 0.000007 -0.000003 -0.000005 0.000000 -0.699970 -1.166622 -0.466663 -0.000007 -0.000003 -0.000006 0.788294 -1.313796 4.256718 -122.618766 -58.006645 50.617234 3.915145 0.000002 0.000001 -19.790202 14.439471 1.928230 6.914917 -0.000001 -0.000006 19.935282 -14.234391 28.989020 6.096251 0.000011 0.000003 0.000017 -0.000004 -0.000003 1.749964 -0.000033 -0.000002 -0.000000 -0.000005 -0.000003 0.699988 -1.166612 -0.466653 -0.000001 0.000004 0.000009 -2.338570 -0.252522 -0.551509 11.980510 -0.463516 -0.440427 0.000019 -0.000001 -10.744977 21.394555 -0.109701 -0.928352 -0.000007 -0.000006 -10.930833 -0.000043 -0.000002 0.000000 -0.000015 -4.087271 -1.487628 4.690999 0.000002 -0.000002 2.338574 -0.252548 -0.551484 9.126214 2.877383 -0.343957 -0.000003 -0.000030 -10.744935 19.689566 0.547629 0.250613 0.000011 -0.000005 -10.930858 -0.000039 -0.000006 -0.000001 0.000013 -4.087264 -1.487645 -2.694006 0.000000 0.000000 
-0.000039 26.869738 39.787792 -2.695266 -3.147180 -10.748057 -0.000000 0.900098 1.860641 13.754877 -3.363838 -0.536971 0.000001 0.400319 2.270314 -0.415303 -2.954192 0.053008 0.000003 0.200926 2.296546 0.898009 3.322697 10.590799 0.000001 0.000009 2.305326 -0.538445 -0.274567 -10.112975 -0.000001 -0.864481 6.051456 -6.508540 2.162274 180.629038 -0.000007 -0.550437 3.121680 3.746699 0.789995 -17.836998 -0.788280 -1.313802 4.256718 -114.524008 42.898837 -64.034096 -3.915120 0.000004 -0.000020 -3.618986 -8.122666 2.734956 -6.914914 -0.000001 -0.000017 4.039854 7.922782 -31.709198 -6.096229 0.000021 -0.000003 -0.000011 -0.000003 -0.000011 -1.749951 -0.000002 0.000000 -0.000002 -0.000001 -0.000003 -0.699969 -1.166623 -0.466674 -0.000007 0.000002 -0.000008 0.788292 -1.313789 4.256721 -125.195906 -59.755740 48.533142 3.915149 0.000006 -0.000003 -19.655816 14.239263 1.889046 6.914912 -0.000001 -0.000003 19.795720 -14.040121 28.987716 6.096248 0.000006 0.000004 0.000015 -0.000006 -0.000003 1.749962 -0.000036 0.000003 -0.000002 -0.000006 0.000002 0.699991 -1.166616 -0.466650 -0.000001 -0.000003 0.000009 -2.338570 -0.252520 -0.551501 12.542503 0.053538 -0.483990 0.000020 -0.000004 -10.744980 19.372450 -1.657836 -0.706092 -0.000008 -0.000002 -10.930834 -0.000043 -0.000003 0.000003 -0.000016 -4.087265 -1.487628 4.602017 0.000002 -0.000001 2.338574 -0.252549 -0.551480 8.761318 3.338776 -0.345861 -0.000004 -0.000031 -10.744936 18.461592 0.983450 0.348516 0.000010 -0.000005 -10.930860 -0.000036 -0.000004 -0.000002 0.000013 -4.087266 -1.487643 -2.618606 0.000000 0.000001 
-0.000043 26.869722 39.787746 -2.982866 -3.053579 -10.512325 -0.000000 0.900098 1.860644 14.313266 -3.036150 -0.540560 0.000001 0.400317 2.270312 -0.400304 -2.918106 0.059207 0.000003 0.200924 2.296545 0.870199 3.255805 10.566913 0.000003 0.000006 2.305342 -0.519886 -0.246930 -9.891909 -0.000000 -0.864483 6.051447 -6.002361 2.112288 180.008775 -0.000006 -0.550438 3.121675 3.768694 0.827301 -17.771105 -0.788277 -1.313807 4.256717 -114.117319 42.778059 -64.627933 -3.915123 0.000009 -0.000022 -3.566573 -7.991809 2.559887 -6.914910 0.000001 -0.000018 3.955592 7.807506 -31.708016 -6.096225 0.000017 -0.000000 -0.000012 -0.000004 -0.000012 -1.749952 -0.000006 0.000004 0.000002 -0.000002 0.000001 -0.699968 -1.166626 -0.466670 -0.000004 0.000001 -0.000006 0.788292 -1.313793 4.256707 -127.261792 -60.823709 47.039069 3.915154 0.000006 -0.000003 -19.617063 14.085068 1.912416 6.914912 -0.000004 -0.000002 19.742517 -13.905032 28.553737 6.096240 0.000007 0.000004 0.000018 -0.000007 -0.000002 1.749957 -0.000037 0.000001 0.000001 0.000001 -0.000004 0.699989 -1.166614 -0.466649 0.000004 0.000008 0.000005 -2.338570 -0.252519 -0.551499 12.970085 0.321135 -0.484818 0.000019 0.000003 -10.744979 18.031836 -2.843155 -0.554399 -0.000009 -0.000009 -10.930835 -0.000043 -0.000002 0.000003 -0.000015 -4.087262 -1.487628 4.523509 0.000003 -0.000002 2.338574 -0.252547 -0.551480 8.430432 3.234276 -0.322260 -0.000003 -0.000031 -10.744934 17.555509 1.459677 0.321069 0.000009 -0.000002 -10.930859 -0.000044 -0.000005 0.000000 0.000014 -4.087273 -1.487642 -2.504398 -0.000001 0.000001 
-0.000041 26.869715 39.787731 -3.021394 -2.951746 -10.543040 0.000000 0.900095 1.860646 14.372257 -3.091737 -0.507761 0.000002 0.400314 2.270316 -0.382505 -2.905405 0.057803 0.000002 0.200926 2.296552 0.829300 3.195804 10.522004 0.000002 0.000008 2.305337 -0.488485 -0.205002 -9.712967 0.000000 -0.864487 6.051454 -4.674949 1.964582 180.207943 -0.000007 -0.550436 3.121676 3.878104 0.868895 -17.685603 -0.788277 -1.313809 4.256716 -113.967567 42.430173 -64.801993 -3.915120 0.000011 -0.000018 -3.517685 -7.870125 2.407286 -6.914911 -0.000000 -0.000018 3.879198 7.699197 -31.629718 -6.096230 0.000019 -0.000003 -0.000012 -0.000005 -0.000014 -1.749952 -0.000007 0.000007 0.000003 -0.000003 0.000000 -0.699970 -1.166626 -0.466662 -0.000004 0.000000 -0.000007 0.788291 -1.313796 4.256717 -125.352563 -58.995704 48.726057 3.915152 0.000005 -0.000005 -19.665759 14.012316 1.999623 6.914910 -0.000005 -0.000004 19.768746 -13.863581 28.182226 6.096246 0.000009 0.000001 0.000017 -0.000005 -0.000002 1.749962 -0.000034 -0.000003 -0.000001 0.000000 -0.000005 0.699994 -1.166614 -0.466650 -0.000003 0.000005 0.000005 -2.338569 -0.252524 -0.551500 13.098769 0.186269 -0.458077 0.000020 -0.000001 -10.744973 17.457936 -2.834515 -0.536607 -0.000008 -0.000008 -10.930835 -0.000038 -0.000003 0.000002 -0.000016 -4.087274 -1.487627 4.473105 0.000003 -0.000002 2.338574 -0.252551 -0.551484 7.856201 3.420805 -0.281100 -0.000003 -0.000025 -10.744934 17.200322 1.034874 0.410270 0.000010 -0.000004 -10.930857 -0.000036 -0.000004 -0.000001 0.000013 -4.087269 -1.487642 -2.357189 0.000001 -0.000001 
-0.000041 26.869722 39.787735 -3.036493 -2.977379 -10.537776 -0.000000 0.900098 1.860638 14.535853 -2.946787 -0.570090 0.000002 0.400315 2.270308 -0.374792 -2.895397 0.054301 0.000003 0.200923 2.296548 0.796701 3.124394 10.441902 0.000001 0.000012 2.305337 -0.452804 -0.149746 -9.513326 0.000000 -0.864485 6.051449 -4.444915 2.486582 180.080874 -0.000007 -0.550436 3.121678 4.021308 0.883802 -17.611913 -0.788278 -1.313803 4.256711 -114.007496 42.522757 -64.770595 -3.915117 0.000009 -0.000018 -3.451856 -7.772663 2.292076 -6.914918 0.000002 -0.000014 3.792531 7.613004 -31.785108 -6.096223 0.000022 -0.000007 -0.000009 -0.000007 -0.000013 -1.749950 -0.000001 0.000007 0.000000 -0.000003 -0.000004 -0.699967 -1.166623 -0.466663 -0.000005 -0.000000 -0.000009 0.788294 -1.313792 4.256710 -123.092467 -56.551518 50.744184 3.915149 0.000012 -0.000009 -19.693889 13.944025 2.119988 6.914923 -0.000004 0.000002 19.766511 -13.838709 28.124940 6.096240 0.000014 -0.000000 0.000015 -0.000007 -0.000005 1.749964 -0.000035 0.000001 -0.000001 -0.000003 -0.000002 0.699997 -1.166614 -0.466650 -0.000001 0.000004 0.000007 -2.338569 -0.252522 -0.551502 13.486944 -0.239770 -0.523856 0.000019 -0.000001 -10.744975 17.751236 -2.088027 -0.741278 -0.000007 -0.000008 -10.930833 -0.000044 -0.000002 0.000001 -0.000015 -4.087271 -1.487629 4.433599 0.000003 -0.000002 2.338574 -0.252548 -0.551487 8.317820 3.231088 -0.330151 -0.000004 -0.000027 -10.744938 16.536641 1.388985 0.278125 0.000010 -0.000004 -10.930859 -0.000039 -0.000005 -0.000001 0.000013 -4.087266 -1.487647 -2.339900 0.000001 0.000001 
-0.000041 26.869719 39.787716 -3.348607 -3.168950 -10.121553 0.000000 0.900100 1.860644 14.596157 -2.798387 -0.730474 0.000001 0.400317 2.270307 -0.362504 -2.886082 0.048801 0.000003 0.200927 2.296551 0.761503 3.056399 10.343404 0.000002 0.000010 2.305330 -0.419807 -0.096808 -8.931745 -0.000000 -0.864485 6.051450 -3.249531 3.602113 178.867013 -0.000007 -0.550433 3.121673 4.112502 0.877298 -17.564019 -0.788279 -1.313808 4.256714 -114.354463 43.686621 -64.273562 -3.915122 0.000010 -0.000024 -3.402670 -7.730759 2.220390 -6.914911 -0.000001 -0.000012 3.731399 7.578284 -31.244482 -6.096226 0.000020 -0.000004 -0.000009 -0.000005 -0.000009 -1.749949 -0.000003 0.000004 0.000000 -0.000004 0.000003 -0.699969 -1.166626 -0.466666 -0.000004 -0.000000 -0.000005 0.788292 -1.313791 4.256711 -121.267782 -54.787724 52.332855 3.915146 0.000002 -0.000002 -19.662632 13.842933 2.228761 6.914915 -0.000004 -0.000008 19.704642 -13.781786 27.589340 6.096254 0.000009 0.000001 0.000012 -0.000010 0.000001 1.749956 -0.000035 -0.000002 0.000004 -0.000003 -0.000001 0.699987 -1.166614 -0.466649 0.000002 0.000005 0.000007 -2.338569 -0.252517 -0.551497 14.028630 -0.675809 -0.696385 0.000019 0.000004 -10.744980 18.596308 -0.585899 -1.105465 -0.000007 -0.000008 -10.930831 -0.000043 -0.000003 -0.000000 -0.000015 -4.087265 -1.487630 4.409003 0.000002 -0.000001 2.338574 -0.252544 -0.551486 8.768730 3.243778 -0.442595 -0.000003 -0.000028 -10.744937 17.163910 1.442070 0.111034 0.000010 -0.000007 -10.930859 -0.000041 -0.000005 -0.000002 0.000013 -4.087274 -1.487646 -2.422002 0.000000 0.000001 
